<svg xmlns="http://www.w3.org/2000/svg" width="1540" height="250" viewBox="0 0 1540 250" version="1.1"><path d="M 124.500 10.535 C 123.950 10.743, 119.450 11.356, 114.500 11.897 C 63.960 17.420, 22.626 59.056, 17.105 110 C 16.539 115.225, 15.849 144.757, 15.572 175.626 C 15.095 228.707, 15.165 231.839, 16.863 233.376 C 18.300 234.677, 20.949 235, 30.174 235 C 40.061 235, 41.924 234.741, 43.345 233.171 C 44.846 231.512, 45.001 225.730, 45.012 170.921 C 45.025 104.068, 45.068 103.541, 51.724 88.922 C 63.443 63.180, 84.935 46.275, 113.208 40.558 C 131.910 36.777, 155.499 41.126, 170.800 51.176 C 173.165 52.729, 175.299 54, 175.543 54 C 176.073 54, 179.809 57.086, 185.726 62.410 C 195.551 71.251, 205.396 88.059, 209.099 102.312 C 211.846 112.888, 211.741 133.717, 208.889 143.936 C 201.101 171.848, 181.235 192.830, 153.731 202.193 C 144.672 205.278, 144.136 205.338, 125 205.418 L 105.500 205.500 105.223 191.250 L 104.945 177 117.223 176.965 C 123.975 176.946, 132.958 176.314, 137.185 175.560 C 160.489 171.404, 177.718 153.390, 181.160 129.579 C 184.815 104.303, 168.855 79.411, 143.947 71.543 C 116.114 62.751, 87.262 77.577, 76.892 106 L 74.520 112.500 74.202 171.708 C 73.973 214.565, 74.199 231.503, 75.022 233.040 C 76.152 235.153, 76.338 235.162, 108.829 234.745 C 142.099 234.317, 148.436 233.688, 161 229.569 C 186.363 221.252, 205.640 206.998, 220.578 185.515 C 230.375 171.425, 236.126 156.057, 239.052 136.145 C 241 122.888, 241.001 122.676, 239.071 109.640 C 235.274 83.992, 225.774 63.522, 209.685 46.323 C 204.234 40.496, 191.996 30, 190.653 30 C 190.343 30, 188.381 28.836, 186.294 27.413 C 177.873 21.671, 161.231 15.203, 149.493 13.110 C 134.730 10.478, 126.812 9.663, 124.500 10.535 M 574 77 L 574 83 580 83 L 586 83 586 77 L 586 71 580 71 L 574 71 574 77 M 271 125 L 271 178 277 178 L 283 178 283 157.583 L 283 137.165 300.405 136.833 L 317.809 136.500 322.155 133.358 C 324.679 131.533, 327.548 128.194, 329 125.388 C 331.232 121.077, 331.538 119.112, 331.854 107.034 C 332.274 90.978, 331.144 84.843, 326.792 79.564 C 321.074 72.626, 318.497 72.047, 293.250 72.022 L 271 72 271 125 M 835.250 73.247 C 833.462 73.820, 832 74.701, 832 75.204 C 832 75.707, 831.595 75.868, 831.101 75.562 C 829.846 74.787, 824.097 81.564, 821.958 86.342 C 820.380 89.867, 820.166 93.988, 820.059 122.907 C 819.921 160.317, 820.344 163.163, 827.126 170.521 C 833.118 177.021, 836.541 177.821, 858.945 177.956 L 878 178.071 878 174.535 C 878 170.677, 879.350 169.916, 880.936 172.880 C 883.208 177.126, 888.598 178, 912.520 178 L 935 178 934.994 148.750 C 934.991 131.103, 934.565 117.975, 933.921 115.656 C 932.466 110.413, 927.354 105.124, 921.652 102.959 C 917.765 101.484, 913.601 101.140, 898.457 101.044 L 880 100.928 880 106.885 L 880 112.841 898.250 113.171 C 917.856 113.524, 919.714 113.975, 922.066 118.946 C 922.730 120.351, 923.366 124.060, 923.478 127.190 L 923.683 132.880 905.502 133.190 C 887.476 133.497, 887.287 133.524, 883.314 136.280 C 876.856 140.759, 875.499 144.479, 875.631 157.329 L 875.722 166.158 858.063 165.829 C 838.194 165.459, 836.645 164.987, 833.490 158.337 C 831.876 154.937, 831.671 151.280, 831.590 124.512 C 831.490 91.744, 831.642 90.740, 837.322 86.571 C 839.895 84.682, 841.809 84.470, 859.072 84.156 L 878 83.813 878 77.906 L 878 72 858.250 72.102 C 847.388 72.158, 837.038 72.673, 835.250 73.247 M 1020 125 L 1020 178 1026.023 178 L 1032.046 178 1031.968 150.501 C 1031.883 120.730, 1032.076 119.474, 1037.323 115.590 C 1039.813 113.747, 1041.544 113.500, 1051.968 113.500 C 1064.442 113.500, 1066.411 114.162, 1069.146 119.273 C 1069.702 120.311, 1070.075 133.081, 1070.031 149.534 L 1069.955 178 1076.020 178 L 1082.086 178 1081.703 147.250 C 1081.311 115.712, 1080.988 112.319, 1077.961 107.991 C 1074.210 102.626, 1069.469 101.218, 1054.612 101.059 C 1040.633 100.910, 1038.606 101.332, 1034.250 105.299 L 1032 107.349 1032 89.674 L 1032 72 1026 72 L 1020 72 1020 125 M 1116 125.082 L 1116 178.164 1139.038 177.832 C 1152.860 177.633, 1162.360 177.100, 1162.788 176.500 C 1163.179 175.950, 1164.096 175.376, 1164.824 175.225 C 1167.712 174.626, 1171.856 170.584, 1174.118 166.160 C 1176.071 162.340, 1176.562 159.640, 1176.843 151.182 C 1177.218 139.894, 1176.338 136.305, 1172.077 131.737 C 1169.714 129.204, 1165.775 126.857, 1162 125.733 C 1161.071 125.456, 1162.018 124.642, 1164.486 123.595 C 1173.879 119.612, 1177.200 113.083, 1176.919 99.153 C 1176.730 89.798, 1175.431 83, 1173.832 83 C 1173.374 83, 1173 82.358, 1173 81.573 C 1173 79.299, 1166.155 74.277, 1161.436 73.088 C 1159.018 72.479, 1148.060 72, 1136.557 72 L 1116 72 1116 125.082 M 283 104.500 L 283 125.218 297.750 124.823 C 313.121 124.411, 314.901 123.949, 318.216 119.511 C 320.606 116.312, 320.974 93.229, 318.688 89.965 C 315.263 85.076, 313.320 84.536, 297.750 84.149 L 283 83.782 283 104.500 M 1128 101.616 L 1128 119.232 1141.250 118.820 C 1155.495 118.378, 1158.898 117.423, 1162.216 112.936 C 1166.572 107.047, 1166.023 91.471, 1161.318 87.428 C 1157.868 84.464, 1155.035 84, 1140.375 84 L 1128 84 1128 101.616 M 579.750 100.739 L 574 101.100 574 139.550 L 574 178 580 178 L 586 178 586 139 C 586 117.550, 585.888 100.085, 585.750 100.189 C 585.612 100.293, 582.913 100.541, 579.750 100.739 M 598.797 126.750 C 598.633 141.463, 598.817 155.677, 599.204 158.339 C 600.259 165.597, 603.483 171.382, 608.287 174.641 C 612.209 177.303, 613.288 177.523, 623.907 177.840 C 638.374 178.271, 642.892 177.583, 646.293 174.429 L 649 171.919 649 174.960 C 649 177.978, 649.039 178, 654.500 178 L 660 178 660 139.500 L 660 101 654.558 101 L 649.116 101 648.808 128.797 C 648.536 153.343, 648.294 156.908, 646.736 159.283 C 643.669 163.959, 640.446 165.339, 631.643 165.747 C 618.602 166.352, 611.868 163.234, 610.590 156 C 610.347 154.625, 610.115 141.463, 610.074 126.750 L 610 100 604.547 100 L 599.093 100 598.797 126.750 M 1190.797 126.750 C 1190.633 141.463, 1190.817 155.677, 1191.204 158.339 C 1192.259 165.597, 1195.483 171.382, 1200.287 174.641 C 1204.209 177.303, 1205.288 177.523, 1215.907 177.840 C 1230.374 178.271, 1234.892 177.583, 1238.293 174.429 L 1241 171.919 1241 174.960 C 1241 177.978, 1241.039 178, 1246.500 178 L 1252 178 1252 139.500 L 1252 101 1246.558 101 L 1241.116 101 1240.808 128.797 C 1240.536 153.343, 1240.294 156.908, 1238.736 159.283 C 1235.669 163.959, 1232.446 165.339, 1223.643 165.747 C 1210.602 166.352, 1203.868 163.234, 1202.590 156 C 1202.347 154.625, 1202.115 141.463, 1202.074 126.750 L 1202 100 1196.547 100 L 1191.093 100 1190.797 126.750 M 1265.655 128.947 C 1265.761 148.876, 1266.196 159.077, 1267.049 161.696 C 1268.788 167.030, 1273.581 173.735, 1276.252 174.568 C 1277.488 174.954, 1278.820 175.771, 1279.212 176.385 C 1279.676 177.111, 1285.868 177.617, 1296.962 177.834 L 1314 178.169 1314 182.019 C 1314 187.538, 1312.580 190.523, 1309.334 191.824 C 1307.775 192.449, 1300.875 193.163, 1294 193.411 C 1287.125 193.659, 1281.388 193.893, 1281.250 193.931 C 1281.112 193.969, 1281 196.842, 1281 200.315 L 1281 206.630 1295.592 206.318 C 1311.952 205.969, 1315.170 205.043, 1319.879 199.331 C 1325.147 192.940, 1325.268 191.812, 1325.740 144.750 L 1326.179 101 1320.089 101 L 1314 101 1314 133.500 L 1314 166 1300.734 166 C 1289.746 166, 1286.871 165.682, 1283.984 164.149 C 1277.460 160.682, 1277.189 159.177, 1277.082 125.750 L 1277 100 1271.250 100.001 L 1265.500 100.001 1265.655 128.947 M 337 139.500 L 337 178 343.023 178 L 349.046 178 348.968 150.557 C 348.902 127.425, 349.138 122.635, 350.466 120.066 C 353.186 114.805, 356.050 113.689, 368.098 113.192 L 379 112.743 379 106.872 L 379 101 369.750 101.006 C 358.587 101.012, 353.762 102.215, 351.045 105.669 L 349 108.270 349 104.635 L 349 101 343 101 L 337 101 337 139.500 M 395.306 103.348 C 384.875 107.671, 383.500 111.939, 383.500 140 C 383.500 162.594, 384.047 166.248, 388.228 171.563 C 392.660 177.198, 396.377 177.954, 419.750 177.978 L 441 178 441 172 L 441 166 422.649 166 C 412.198 166, 402.978 165.540, 401.230 164.930 C 397.126 163.500, 395 158.779, 395 151.099 L 395 145 419 145 L 443 145 443.175 134.250 C 443.497 114.496, 442.839 111.175, 437.603 106.100 C 433.201 101.834, 429.146 100.993, 413.500 101.103 C 402.606 101.180, 399.658 101.544, 395.306 103.348 M 453 139.500 L 453 178 458.500 178 L 464 178 464.128 153.250 C 464.276 124.419, 464.200 125.488, 466.440 120.769 C 469.301 114.738, 472.082 113.532, 483.175 113.515 C 491.442 113.502, 493.261 113.805, 495.675 115.594 C 500.427 119.115, 500.882 122.199, 500.944 151.250 L 501 178 507.044 178 L 513.088 178 512.958 150.250 C 512.881 133.900, 513.237 121.442, 513.823 119.925 C 515.678 115.123, 519.492 113.621, 530 113.558 C 542.258 113.483, 544.107 114.066, 546.798 118.855 C 548.920 122.629, 549 123.781, 549 150.386 L 549 178 555 178 L 561 178 561 149.182 C 561 116.898, 560.348 112.487, 554.694 106.509 C 550.164 101.719, 547.860 101.141, 533.254 101.129 C 518.632 101.118, 515.089 102.180, 511.419 107.677 L 509.298 110.854 507.899 107.677 C 505.604 102.465, 501.375 101.103, 487.315 101.048 C 473.558 100.994, 471.758 101.444, 467.227 106.079 L 464 109.380 464 105.190 L 464 101 458.500 101 L 453 101 453 139.500 M 675 139.500 L 675 178 680.500 178 L 686 178 686.128 153.250 C 686.276 124.419, 686.200 125.488, 688.440 120.769 C 691.301 114.738, 694.082 113.532, 705.175 113.515 C 713.442 113.502, 715.261 113.805, 717.675 115.594 C 722.427 119.115, 722.882 122.199, 722.944 151.250 L 723 178 729.044 178 L 735.088 178 734.958 150.250 C 734.881 133.900, 735.237 121.442, 735.823 119.925 C 737.678 115.123, 741.492 113.621, 752 113.558 C 764.258 113.483, 766.107 114.066, 768.798 118.855 C 770.920 122.629, 771 123.781, 771 150.386 L 771 178 777 178 L 783 178 783 149.182 C 783 116.898, 782.348 112.487, 776.694 106.509 C 772.164 101.719, 769.860 101.141, 755.254 101.129 C 740.632 101.118, 737.089 102.180, 733.419 107.677 L 731.298 110.854 729.899 107.677 C 727.604 102.465, 723.375 101.103, 709.315 101.048 C 695.558 100.994, 693.758 101.444, 689.227 106.079 L 686 109.380 686 105.190 L 686 101 680.500 101 L 675 101 675 139.500 M 959.458 102.935 C 957.281 103.926, 954.556 105.808, 953.402 107.118 C 946.698 114.730, 946.124 130.496, 952.232 139.265 C 955.878 144.501, 959.068 145.383, 976.612 146.012 C 989.463 146.472, 993.255 146.937, 995.346 148.307 C 1000.518 151.696, 1000.144 160.840, 994.719 163.645 C 990.653 165.748, 990.967 165.721, 968.750 165.872 L 950 166 950 172 L 950 178 971.634 178 C 995.660 178, 999.597 177.336, 1004.467 172.467 C 1008.315 168.618, 1010 163.225, 1010 154.756 C 1010 146.852, 1008.098 141.939, 1003.757 138.628 C 998.529 134.640, 995.896 134.094, 981.202 133.946 C 965.015 133.783, 961.737 132.763, 959.944 127.331 C 958.498 122.949, 959.433 117.824, 962.123 115.387 C 963.997 113.690, 966.306 113.466, 985.103 113.163 L 1006 112.825 1006 106.885 L 1006 100.944 984.708 101.039 C 966.467 101.120, 962.849 101.392, 959.458 102.935 M 1350.306 103.348 C 1339.875 107.671, 1338.500 111.939, 1338.500 140 C 1338.500 162.594, 1339.047 166.248, 1343.228 171.563 C 1347.660 177.198, 1351.377 177.954, 1374.750 177.978 L 1396 178 1396 172 L 1396 166 1377.649 166 C 1367.198 166, 1357.978 165.540, 1356.230 164.930 C 1352.126 163.500, 1350 158.779, 1350 151.099 L 1350 145 1374 145 L 1398 145 1398.175 134.250 C 1398.497 114.496, 1397.839 111.175, 1392.603 106.100 C 1388.201 101.834, 1384.146 100.993, 1368.500 101.103 C 1357.606 101.180, 1354.658 101.544, 1350.306 103.348 M 1411 139.500 L 1411 178 1417.023 178 L 1423.046 178 1422.968 150.557 C 1422.902 127.425, 1423.138 122.635, 1424.466 120.066 C 1427.186 114.805, 1430.050 113.689, 1442.098 113.192 L 1453 112.743 1453 106.872 L 1453 101 1443.750 101.006 C 1432.587 101.012, 1427.762 102.215, 1425.045 105.669 L 1423 108.270 1423 104.635 L 1423 101 1417 101 L 1411 101 1411 139.500 M 1467.458 102.935 C 1465.281 103.926, 1462.556 105.808, 1461.402 107.118 C 1454.698 114.730, 1454.124 130.496, 1460.232 139.265 C 1463.878 144.501, 1467.068 145.383, 1484.612 146.012 C 1497.463 146.472, 1501.255 146.937, 1503.346 148.307 C 1508.518 151.696, 1508.144 160.840, 1502.719 163.645 C 1498.653 165.748, 1498.967 165.721, 1476.750 165.872 L 1458 166 1458 172 L 1458 178 1479.634 178 C 1503.660 178, 1507.597 177.336, 1512.467 172.467 C 1516.315 168.618, 1518 163.225, 1518 154.756 C 1518 146.852, 1516.098 141.939, 1511.757 138.628 C 1506.529 134.640, 1503.896 134.094, 1489.202 133.946 C 1473.015 133.783, 1469.737 132.763, 1467.944 127.331 C 1466.498 122.949, 1467.433 117.824, 1470.123 115.387 C 1471.997 113.690, 1474.306 113.466, 1493.103 113.163 L 1514 112.825 1514 106.885 L 1514 100.944 1492.708 101.039 C 1474.467 101.120, 1470.849 101.392, 1467.458 102.935 M 399.986 114.775 C 396.097 116.732, 395.244 118.909, 395.100 127.250 L 395 133 413.407 133 L 431.815 133 432.157 127.352 C 432.526 121.276, 431.375 117.387, 428.501 115 C 425.669 112.647, 404.545 112.480, 399.986 114.775 M 1354.986 114.775 C 1351.097 116.732, 1350.244 118.909, 1350.100 127.250 L 1350 133 1368.407 133 L 1386.815 133 1387.157 127.352 C 1387.526 121.276, 1386.375 117.387, 1383.501 115 C 1380.669 112.647, 1359.545 112.480, 1354.986 114.775 M 1128 148.509 L 1128 166.214 1143.274 165.857 C 1156.913 165.538, 1158.779 165.285, 1160.709 163.486 C 1167.310 157.335, 1167.280 141.212, 1160.655 135.369 C 1158.867 133.791, 1156.750 132.304, 1155.952 132.064 C 1155.153 131.824, 1148.537 131.442, 1141.250 131.216 L 1128 130.804 1128 148.509 M 892.225 145.709 C 888.792 146.368, 886.802 150.228, 886.848 156.138 C 886.878 160.029, 887.410 161.855, 888.969 163.416 C 890.880 165.330, 892.395 165.526, 907.525 165.817 L 924 166.135 924 155.567 L 924 145 909.250 145.136 C 901.138 145.211, 893.476 145.469, 892.225 145.709" stroke="none" fill="#1472bc" fill-rule="evenodd"/><path d="M 598.435 126 C 598.435 140.025, 598.575 145.763, 598.747 138.750 C 598.919 131.738, 598.919 120.263, 598.747 113.250 C 598.575 106.238, 598.435 111.975, 598.435 126 M 660.455 139.500 C 660.455 160.950, 660.587 169.583, 660.749 158.684 C 660.911 147.785, 660.910 130.235, 660.748 119.684 C 660.587 109.133, 660.454 118.050, 660.455 139.500 M 1190.435 126 C 1190.435 140.025, 1190.575 145.763, 1190.747 138.750 C 1190.919 131.738, 1190.919 120.263, 1190.747 113.250 C 1190.575 106.238, 1190.435 111.975, 1190.435 126 M 1252.455 139.500 C 1252.455 160.950, 1252.587 169.583, 1252.749 158.684 C 1252.911 147.785, 1252.910 130.235, 1252.748 119.684 C 1252.587 109.133, 1252.454 118.050, 1252.455 139.500 M 1265.432 125 C 1265.432 138.475, 1265.574 143.988, 1265.747 137.250 C 1265.920 130.512, 1265.920 119.487, 1265.747 112.750 C 1265.574 106.013, 1265.432 111.525, 1265.432 125 M 831.355 116.500 C 831.352 121.450, 831.521 123.601, 831.731 121.280 C 831.940 118.959, 831.943 114.909, 831.736 112.280 C 831.530 109.651, 831.358 111.550, 831.355 116.500 M 443.374 134.500 C 443.376 140.550, 443.541 142.896, 443.740 139.713 C 443.939 136.531, 443.937 131.581, 443.736 128.713 C 443.535 125.846, 443.372 128.450, 443.374 134.500 M 1398.374 134.500 C 1398.376 140.550, 1398.541 142.896, 1398.740 139.713 C 1398.939 136.531, 1398.937 131.581, 1398.736 128.713 C 1398.535 125.846, 1398.372 128.450, 1398.374 134.500 M 464.435 153 C 464.435 167.025, 464.575 172.763, 464.747 165.750 C 464.919 158.738, 464.919 147.263, 464.747 140.250 C 464.575 133.238, 464.435 138.975, 464.435 153 M 686.435 153 C 686.435 167.025, 686.575 172.763, 686.747 165.750 C 686.919 158.738, 686.919 147.263, 686.747 140.250 C 686.575 133.238, 686.435 138.975, 686.435 153" stroke="none" fill="#1c74bc" fill-rule="evenodd"/></svg>