<svg xmlns="http://www.w3.org/2000/svg" width="37" height="37" viewBox="0 0 37 37" version="1.1"><path d="M 2.455 9.455 C -0.194 12.104, -0.653 15.474, 1.110 19.343 C 2.640 22.701, 4.510 23.533, 15.370 25.692 L 18.241 26.262 17.840 19.180 C 17.515 13.418, 16.994 11.622, 15.046 9.549 C 11.770 6.062, 5.891 6.018, 2.455 9.455 M 22.073 9.635 C 17.604 15.316, 21.124 24, 27.896 24 C 29.538 24, 31.160 24.450, 31.500 25 C 31.840 25.550, 33.216 26, 34.559 26 C 36.910 26, 37 25.747, 37 19.135 C 37 10.053, 34.862 7, 28.500 7 C 24.986 7, 23.745 7.509, 22.073 9.635 M 5.750 11.080 C 3.237 12.544, 3.484 17.525, 6.163 19.402 C 7.353 20.235, 8.693 20.690, 9.142 20.412 C 9.591 20.135, 10.868 20.394, 11.979 20.989 C 13.864 21.998, 14 21.775, 14 17.690 C 14 11.378, 10.312 8.423, 5.750 11.080 M 25.223 11.557 C 21.131 14.422, 23.174 19.730, 28.606 20.350 C 30.315 20.545, 32.227 21.022, 32.856 21.411 C 34.995 22.733, 34.220 14.220, 32 12 C 29.593 9.593, 28.160 9.499, 25.223 11.557" stroke="none" fill="#fffcfc" fill-rule="evenodd"/><path d="" stroke="none" fill="#fcfcfc" fill-rule="evenodd"/></svg>