<svg xmlns="http://www.w3.org/2000/svg" width="300" height="300" viewBox="0 0 300 300" version="1.1"><path d="" stroke="none" fill="#50545c" fill-rule="evenodd"/><path d="M 205.594 80.906 C 195.779 90.740, 191.893 95.279, 192.326 96.406 C 192.810 97.669, 194.499 98, 200.461 98 L 207.985 98 208.242 160.750 L 208.500 223.500 220.750 223.781 L 233 224.062 233 161.031 L 233 98 239.918 98 C 247.360 98, 250 97.404, 250 95.723 C 250 94.019, 222.751 67, 221.033 67 C 220.175 67, 213.227 73.258, 205.594 80.906 M 211.055 83.445 L 201.649 92.890 207.575 93.195 L 213.500 93.500 213.758 156.250 L 214.015 219 221.008 219 L 228 219 228 156 L 228 93 234.230 93 L 240.460 93 231 83.500 C 225.797 78.275, 221.297 74, 221 74 C 220.703 74, 216.228 78.250, 211.055 83.445 M 144.415 80.421 C 138.336 83.068, 134.125 91.522, 135.427 98.463 C 136.903 106.330, 146.496 113.073, 154.154 111.626 C 169.561 108.715, 173.192 90.111, 160.078 81.274 C 156.189 78.653, 149.334 78.280, 144.415 80.421 M 144.686 87.415 C 135.977 95.486, 144.997 109.557, 155.968 105.013 C 162.790 102.188, 164.414 93.260, 159.077 87.923 C 155.182 84.028, 148.592 83.795, 144.686 87.415 M 63.561 119.975 C 47.406 136.278, 47.239 137, 59.622 137 L 67 137 67 180.531 L 67 224.062 79.250 223.781 L 91.500 223.500 91.761 180.250 L 92.021 137 98.429 137 C 105.878 137, 108 136.385, 108 134.226 C 108 131.783, 81.968 106, 79.502 106 C 78.137 106, 72.585 110.867, 63.561 119.975 M 69.558 121.942 L 60.658 130.884 66.079 131.192 L 71.500 131.500 71.761 175.250 L 72.021 219 79.011 219 L 86 219 86 175.607 C 86 127.172, 85.373 131, 93.311 131 L 97.458 131 88.500 122 C 83.573 117.050, 79.298 113, 79 113 C 78.702 113, 74.453 117.024, 69.558 121.942 M 141.118 114.013 C 130.787 116.200, 125.606 121.305, 124.467 130.419 C 124.101 133.345, 123.959 142.065, 124.151 149.798 C 124.539 165.430, 125.467 168.006, 131.789 171 L 134.957 172.500 134.978 197.750 L 135 223 151.500 223 L 168 223 168 198.047 L 168 173.094 171.484 171.440 C 178.216 168.246, 179 165.552, 179 145.600 C 179 126.687, 178.366 123.441, 173.865 119.298 C 172.549 118.086, 169.708 116.358, 167.550 115.456 C 162.897 113.512, 147.466 112.670, 141.118 114.013 M 142.500 119.663 C 141.400 119.900, 138.836 120.806, 136.803 121.675 C 130.888 124.204, 129.998 127.283, 130.015 145.151 C 130.029 160.402, 130.825 164.789, 133.750 165.754 C 134.718 166.074, 135 162.203, 135 148.583 L 135 131 138 131 L 141 131 141 174 L 141 217 145 217 L 149 217 149 190.500 L 149 164 152 164 L 155 164 155 190.500 L 155 217 159 217 L 163 217 163 174 L 163 131 165.500 131 L 168 131 168 148.500 C 168 158.125, 168.380 166, 168.845 166 C 169.310 166, 170.435 165.177, 171.345 164.171 C 172.753 162.616, 173 159.721, 173 144.806 C 173 124.305, 172.554 123.133, 163.764 120.522 C 159.038 119.119, 147.236 118.642, 142.500 119.663 M 50.306 229.645 C 48.624 234.029, 47.956 234, 150 234 C 251.606 234, 251.097 234.022, 249.447 229.724 C 248.828 228.108, 242.576 228, 149.862 228 C 58.985 228, 50.886 228.134, 50.306 229.645" stroke="none" fill="#4c545c" fill-rule="evenodd"/></svg>