<svg xmlns="http://www.w3.org/2000/svg" width="300" height="300" viewBox="0 0 300 300" version="1.1"><path d="" stroke="none" fill="#50545c" fill-rule="evenodd"/><path d="M 179.942 75.948 C 170.817 78.717, 165.768 87.499, 168.126 96.500 C 170.090 104, 176.725 109.002, 184.700 108.996 C 192.719 108.990, 198.949 104.088, 200.958 96.204 C 204.152 83.664, 192.266 72.208, 179.942 75.948 M 179.321 82.613 C 175.394 84.550, 172.617 89.981, 173.500 94 C 175.085 101.219, 182.065 105.253, 188.392 102.609 C 192.056 101.079, 195.990 95.927, 195.996 92.651 C 196.003 89.072, 192.842 84.153, 189.522 82.577 C 185.385 80.615, 183.360 80.622, 179.321 82.613 M 105.500 105.402 C 91.633 109.799, 79.506 121.402, 74.957 134.625 C 65.404 162.391, 82.797 191.461, 111.754 196.126 C 129.529 198.989, 149.719 189.574, 158.712 174.228 C 164.709 163.996, 166.772 148.161, 163.511 137.409 C 162.692 134.709, 162.017 132.387, 162.011 132.250 C 162.005 132.113, 163.121 132, 164.490 132 L 166.980 132 167.240 178.250 L 167.500 224.500 184.500 224.500 L 201.500 224.500 201.765 196.378 L 202.031 168.257 206.385 167.766 C 215.212 166.771, 224.510 157.379, 227.018 146.925 C 230.508 132.375, 221.379 116.863, 206.774 112.526 C 202.697 111.315, 195.641 110.993, 172.568 110.968 C 148.306 110.942, 143.172 110.688, 141.514 109.436 C 135.197 104.661, 114.978 102.397, 105.500 105.402 M 110.251 110.516 C 104.254 111.819, 94.997 116.094, 93.023 118.472 C 92.375 119.253, 96.219 123.739, 105.310 132.811 L 118.540 146.013 125.493 139.007 L 132.446 132 128.646 132 C 120.152 132, 115.883 121.858, 121.544 115.130 C 122.943 113.467, 125.081 111.772, 126.294 111.362 C 128.192 110.721, 127.941 110.512, 124.500 109.866 C 119.131 108.858, 117.554 108.930, 110.251 110.516 M 126.243 118.157 C 124.774 119.626, 124.647 122.893, 125.977 125 C 126.765 126.248, 130.802 126.551, 149.962 126.802 L 173 127.105 173 173.052 L 173 219 177 219 L 181 219 181 191.500 L 181 164 184.500 164 L 188 164 188 191.500 L 188 219 192 219 L 196 219 196 172.372 L 196 125.744 200.250 126.423 C 208.555 127.748, 212.990 133.054, 212.996 141.673 C 213 147.427, 210.259 151.780, 204.881 154.562 C 202.869 155.602, 202 156.807, 202 158.557 C 202 167.465, 217.925 157.484, 220.949 146.680 C 223.737 136.725, 219.497 126.058, 210.554 120.526 L 205.661 117.500 166.573 117.207 C 136.437 116.982, 127.201 117.199, 126.243 118.157 M 84.595 128.250 C 81.342 133.803, 79.411 138.618, 78.581 143.250 L 77.909 147 94.688 147 L 111.467 147 100 135.500 C 93.693 129.175, 88.207 124, 87.808 124 C 87.410 124, 85.964 125.912, 84.595 128.250 M 131.731 141.768 L 122 151.536 122 171.268 C 122 182.121, 122.338 190.995, 122.750 190.988 C 125.428 190.946, 134.623 187.786, 138.998 185.404 C 155.868 176.223, 163.996 153.286, 156.628 135.653 L 155.102 132 148.282 132 L 141.462 132 131.731 141.768 M 202 141.031 C 202 149.232, 202.545 150.270, 205.267 147.250 C 208.847 143.277, 207.833 135.301, 203.537 133.653 C 202.234 133.152, 202 134.274, 202 141.031 M 78.589 156.750 C 80.659 168.175, 88.610 179.651, 98.453 185.419 C 102.113 187.565, 112.429 191, 115.210 191 C 115.645 191, 116 182.450, 116 172 L 116 153 96.955 153 L 77.909 153 78.589 156.750" stroke="none" fill="#4c545c" fill-rule="evenodd"/></svg>