<svg xmlns="http://www.w3.org/2000/svg" width="212" height="118" viewBox="0 0 212 118" version="1.1"><path d="" stroke="none" fill="#50545c" fill-rule="evenodd"/><path d="M 35.362 0.820 C 33.430 2.095, -0 52.329, -0 53.956 C -0 56.172, 29.618 76.258, 31.837 75.547 C 32.752 75.254, 34.779 72.986, 36.342 70.507 C 39.561 65.402, 40.274 65.125, 42.395 68.154 C 43.764 70.108, 43.723 70.537, 41.952 72.788 C 39.316 76.139, 39.348 82.902, 42.016 86.293 C 44.158 89.016, 50.171 91.532, 52.450 90.658 C 53.295 90.333, 54.043 91.036, 54.411 92.500 C 55.214 95.702, 60.579 99.348, 64.611 99.432 C 67.129 99.484, 68.032 100.013, 68.454 101.684 C 69.202 104.650, 74.413 108.186, 78.289 108.359 C 80.690 108.466, 81.852 109.212, 83.059 111.423 C 84.662 114.360, 90.159 118.001, 92.984 117.998 C 93.818 117.998, 96.075 117.196, 98 116.218 C 101.365 114.508, 101.665 114.510, 105.789 116.284 C 109.937 118.067, 110.197 118.068, 113.740 116.314 C 116.077 115.156, 118.190 112.990, 119.578 110.326 C 121.010 107.579, 122.090 106.490, 122.741 107.141 C 123.284 107.684, 125.683 107.987, 128.071 107.814 C 131.889 107.538, 132.828 106.956, 135.840 103 C 139.178 98.616, 139.393 98.509, 144.145 98.843 C 148.556 99.153, 149.312 98.878, 152.022 95.976 C 153.671 94.211, 155.287 91.703, 155.614 90.403 C 156.098 88.475, 156.543 88.220, 158.038 89.020 C 159.045 89.559, 161.148 90, 162.712 90 C 171.016 90, 177.279 77.119, 171.806 71.294 C 169.822 69.182, 169.761 68.810, 171.167 67.404 C 172.573 65.999, 172.998 66.288, 175.611 70.432 C 177.200 72.952, 179.252 75.255, 180.171 75.549 C 182.713 76.363, 213 55.443, 213 52.873 C 213 51.778, 212.663 51.079, 212.250 51.319 C 211.838 51.560, 203.850 40.357, 194.500 26.423 C 185.150 12.489, 176.923 0.853, 176.218 0.564 C 175.513 0.275, 167.988 4.755, 159.495 10.519 L 144.054 21 105.943 21 L 67.833 21 54.167 11.644 C 38.363 0.824, 36.756 -0.101, 35.362 0.820 M 22.131 30.236 C 13.905 42.466, 7.399 52.836, 7.674 53.281 C 8.229 54.180, 30.298 69.067, 30.559 68.719 C 30.650 68.599, 37.499 58.325, 45.781 45.888 L 60.837 23.276 49.608 15.638 C 43.432 11.437, 38.088 8, 37.734 8 C 37.379 8, 30.358 18.006, 22.131 30.236 M 162.334 15.654 L 151.169 23.286 166.223 45.893 C 174.502 58.327, 181.350 68.599, 181.441 68.719 C 181.702 69.067, 203.771 54.180, 204.326 53.281 C 204.878 52.389, 175.339 7.993, 174.206 8.011 C 173.818 8.017, 168.476 11.457, 162.334 15.654 M 54.236 43.728 L 42.972 60.403 45.363 62.451 C 46.678 63.578, 47.995 65.224, 48.291 66.108 C 48.586 66.992, 50.255 68.001, 51.998 68.350 C 53.742 68.698, 56.539 69.959, 58.213 71.152 C 60.686 72.912, 61.607 73.102, 63.115 72.160 C 66.605 69.981, 72.641 70.751, 76.215 73.831 C 78.949 76.186, 80.191 76.590, 83.620 76.238 C 88.740 75.712, 93.416 77.970, 95.483 81.967 C 97.388 85.652, 97.401 88.323, 95.531 91.941 C 94.102 94.703, 94.146 94.818, 97.064 96.027 C 101.156 97.722, 104 101.610, 104 105.510 C 104 108.167, 104.585 109.042, 107.250 110.369 C 110.478 111.977, 110.519 111.966, 113.250 108.782 C 114.762 107.018, 116 105, 116 104.295 C 116 103.591, 113.746 101.549, 110.990 99.758 C 107.398 97.422, 106.054 95.937, 106.240 94.510 C 106.683 91.116, 109.476 91.709, 117.728 96.949 C 122.104 99.727, 126.604 102, 127.727 102 C 129.993 102, 133 98.111, 133 95.181 C 133 93.890, 130.273 91.594, 124.385 87.929 C 119.647 84.979, 115.536 81.953, 115.248 81.205 C 114.961 80.457, 115.431 79.140, 116.292 78.279 C 117.714 76.858, 118.951 77.408, 129.679 84.238 C 145.634 94.396, 145.429 94.302, 147.246 92.218 C 150.195 88.834, 151.220 85.971, 150.006 84.507 C 149.383 83.757, 143.755 79.928, 137.500 76 C 131.245 72.072, 125.598 68.220, 124.951 67.441 C 123.481 65.670, 124.417 63, 126.509 63 C 127.373 63, 135.501 67.725, 144.570 73.500 C 153.639 79.275, 161.894 84, 162.915 84 C 165.047 84, 168 79.999, 168 77.111 C 168 75.674, 164.144 72.736, 153.513 66.076 L 139.026 57 128.662 57 C 122.962 57, 116.769 56.490, 114.899 55.866 C 110.700 54.465, 105.358 49.564, 104.559 46.380 C 103.993 44.122, 103.552 44, 95.981 44 L 88 44 88 48.364 C 88 54.476, 85.099 57.109, 75.948 59.306 C 66.062 61.679, 66 61.601, 66 46.852 L 66 34.949 72.250 30.984 L 78.500 27.019 72 27.037 L 65.500 27.054 54.236 43.728 M 81 32.394 L 72.500 37.638 72.208 45.908 L 71.916 54.177 75.208 53.470 C 81.897 52.034, 82.668 50.979, 83.233 42.500 L 83.500 38.500 95.891 38.500 C 109.253 38.500, 109.248 38.498, 110.467 44.281 C 111.549 49.410, 115.921 50.992, 129.027 50.996 L 140.555 51 152.421 58.389 L 164.288 65.777 166.555 63.141 C 167.802 61.691, 168.525 59.975, 168.161 59.326 C 167.798 58.678, 162.775 51.151, 157 42.601 L 146.500 27.055 118 27.103 L 89.500 27.150 81 32.394 M 0.158 54 C 0.158 55.375, 0.385 55.938, 0.662 55.250 C 0.940 54.563, 0.940 53.438, 0.662 52.750 C 0.385 52.063, 0.158 52.625, 0.158 54 M 24.750 55.080 C 22.740 56.251, 22.401 61.001, 24.200 62.800 C 26.109 64.709, 29.750 64.195, 31.443 61.777 C 33.447 58.917, 33.408 58.408, 31 56 C 28.778 53.778, 27.347 53.567, 24.750 55.080 M 180 56 C 177.592 58.408, 177.465 60.322, 179.571 62.429 C 181.436 64.294, 185.117 64.483, 186.800 62.800 C 188.483 61.117, 188.294 57.436, 186.429 55.571 C 184.322 53.465, 182.408 53.592, 180 56 M 47.831 75.250 C 45.234 77.342, 45.001 79.731, 47.128 82.436 C 49.424 85.354, 52.134 85.723, 54.429 83.429 C 56.536 81.321, 56.416 77.686, 54.171 75.655 C 51.989 73.680, 49.941 73.549, 47.831 75.250 M 66.834 77.033 C 65.918 77.568, 63.774 80.271, 62.070 83.041 C 58.850 88.274, 58.914 90.024, 62.432 92.944 C 65.136 95.188, 68.357 93.364, 71.840 87.616 C 75.396 81.749, 75.208 79.252, 71.043 77.023 C 68.774 75.808, 68.933 75.808, 66.834 77.033 M 78.392 88.231 C 72.757 97.253, 72.643 97.733, 75.466 100.557 C 78.273 103.364, 80.225 103.632, 82.355 101.502 C 84.739 99.118, 91 88.391, 91 86.691 C 91 84.270, 88.130 82, 85.071 82 C 82.737 82, 81.652 83.012, 78.392 88.231 M 89.278 102.250 C 87 105.194, 87.049 107.140, 89.465 109.556 C 92.299 112.390, 94.225 112.632, 96.429 110.429 C 100.139 106.719, 97.714 101, 92.431 101 C 91.229 101, 89.810 101.563, 89.278 102.250" stroke="none" fill="#4c545c" fill-rule="evenodd"/></svg>