<svg xmlns="http://www.w3.org/2000/svg" width="300" height="300" viewBox="0 0 300 300" version="1.1"><path d="" stroke="none" fill="#50545c" fill-rule="evenodd"/><path d="M 70.241 70.826 C 69.250 71.458, 69.037 82.481, 69.241 122.565 L 69.500 173.500 94.624 174 L 119.747 174.500 112.337 183.942 C 104.859 193.470, 103.825 196.256, 107.568 196.794 C 109.141 197.021, 111.683 194.420, 118.557 185.550 C 127.137 174.480, 127.652 174.011, 131.250 174.006 L 135 174 135 185.500 L 135 197 137.500 197 L 140 197 140 185.500 L 140 174 143.784 174 C 147.428 174, 147.893 174.422, 156.435 185.500 C 165.121 196.764, 168.246 199.128, 169.641 195.492 C 170.302 193.771, 169.479 192.460, 161.020 181.750 L 154.898 174 170.449 174 L 186 174 186 202 L 186 230 203 230 L 220 230 220 209.701 L 220 189.402 223.569 188.111 C 225.636 187.364, 227.950 185.490, 229.066 183.660 C 230.830 180.767, 230.993 178.426, 230.996 155.962 C 231 132.492, 230.902 131.231, 228.750 126.989 C 227.050 123.639, 225.284 121.936, 221.529 120.027 L 216.558 117.500 180.238 117.214 L 143.918 116.929 140.864 119.983 C 138.136 122.710, 137.846 123.569, 138.155 128.019 L 138.500 133.001 110.332 133.001 C 94.839 133, 81.452 133.273, 80.582 133.607 C 79.239 134.122, 79 136.431, 79 148.907 C 79 159.002, 79.376 163.976, 80.200 164.800 C 81.103 165.703, 94.356 166, 133.700 166 C 167.900 166, 186 166.346, 186 167 C 186 167.655, 166.833 168, 130.500 168 L 75 168 75 122 L 75 76 136.500 76 L 198 76 197.992 78.750 C 197.986 80.894, 197.128 81.989, 194.096 83.720 C 189.605 86.284, 186 92.714, 186 98.158 C 186 109.268, 198.335 117.847, 208.685 113.936 C 212.516 112.489, 216.958 108.174, 218.623 104.282 C 222.687 94.784, 216.533 83.457, 206.184 81.387 C 203.268 80.804, 203.080 80.484, 202.798 75.635 L 202.500 70.500 137 70.261 C 100.975 70.130, 70.933 70.384, 70.241 70.826 M 176.474 84.765 C 175.909 85.169, 171.915 89.662, 167.598 94.750 C 163.281 99.838, 159.575 104, 159.364 104 C 159.153 104, 155.634 101.525, 151.544 98.500 C 147.453 95.475, 143.326 93, 142.371 93 C 141.417 93, 136.907 96.641, 132.348 101.090 L 124.059 109.181 118.280 105.920 C 115.101 104.127, 111.612 102.061, 110.527 101.330 C 106.707 98.754, 104.624 99.836, 95.230 109.269 C 90.154 114.367, 86 119.037, 86 119.646 C 86 120.256, 86.635 121.282, 87.411 121.926 C 88.548 122.869, 90.394 121.709, 96.914 115.955 C 101.364 112.027, 105.380 108.144, 105.837 107.327 C 106.522 106.103, 107.995 106.647, 114.211 110.421 C 118.359 112.939, 122.812 115, 124.106 115 C 125.706 115, 129.022 112.458, 134.479 107.047 L 142.500 99.093 150.422 105.047 C 154.780 108.321, 159.090 111, 160.001 111 C 160.912 111, 165.705 106.162, 170.653 100.250 C 181.457 87.339, 181.487 87.292, 179.964 85.456 C 178.610 83.825, 177.965 83.698, 176.474 84.765 M 195.400 90.400 C 192.613 93.187, 192 94.557, 192 98 C 192 101.443, 192.613 102.813, 195.400 105.600 C 198.187 108.387, 199.557 109, 203 109 C 206.443 109, 207.813 108.387, 210.600 105.600 C 213.387 102.813, 214 101.443, 214 98 C 214 94.557, 213.387 93.187, 210.600 90.400 C 207.813 87.613, 206.443 87, 203 87 C 199.557 87, 198.187 87.613, 195.400 90.400 M 145.039 123.961 C 142.902 126.098, 142.951 129.139, 145.160 131.500 C 145.715 132.093, 155.448 132.623, 169.048 132.802 L 192 133.105 192 178.552 L 192 224 196 224 L 200 224 200 196.500 L 200 169 203 169 L 206 169 206 196.500 L 206 224 210 224 L 214 224 214 182.500 L 214 141 217 141 L 220 141 220 162 C 220 174.256, 220.387 183, 220.929 183 C 221.439 183, 222.564 182.293, 223.429 181.429 C 224.771 180.086, 225 176.315, 225 155.563 C 225 120.622, 227.823 122.731, 180.341 122.194 C 147.537 121.823, 147.158 121.842, 145.039 123.961 M 85 143 L 85 147 92.500 147 L 100 147 100 143 L 100 139 92.500 139 L 85 139 85 143 M 106 143 L 106 147 114 147 L 122 147 122 143 L 122 139 114 139 L 106 139 106 143 M 127 143 L 127 147 135 147 L 143 147 143 143 L 143 139 135 139 L 127 139 127 143 M 149 143 L 149 147 156.500 147 L 164 147 164 143 L 164 139 156.500 139 L 149 139 149 143 M 170 143 L 170 147 178 147 L 186 147 186 143 L 186 139 178 139 L 170 139 170 143 M 85 156 L 85 160 92.500 160 L 100 160 100 156 L 100 152 92.500 152 L 85 152 85 156 M 106 156 L 106 160 114 160 L 122 160 122 156 L 122 152 114 152 L 106 152 106 156 M 127 156 L 127 160 135 160 L 143 160 143 156 L 143 152 135 152 L 127 152 127 156 M 149 156 L 149 160 156.500 160 L 164 160 164 156 L 164 152 156.500 152 L 149 152 149 156 M 170 156 L 170 160 178 160 L 186 160 186 156 L 186 152 178 152 L 170 152 170 156" stroke="none" fill="#4c545c" fill-rule="evenodd"/></svg>