<svg xmlns="http://www.w3.org/2000/svg" width="300" height="300" viewBox="0 0 300 300" version="1.1"><path d="" stroke="none" fill="#50545c" fill-rule="evenodd"/><path d="M 100 70.539 C 68.689 79.283, 58.733 118.226, 82.108 140.521 C 85.314 143.580, 90.539 147.301, 93.719 148.791 C 98.954 151.244, 100.586 151.500, 111 151.500 C 121.689 151.500, 122.923 151.293, 128.500 148.567 C 136.171 144.817, 144.817 136.171, 148.567 128.500 C 151.293 122.923, 151.500 121.689, 151.500 111 C 151.500 100.586, 151.244 98.954, 148.791 93.719 C 140.263 75.519, 118.754 65.301, 100 70.539 M 155.750 76.693 C 152.588 78.102, 150 79.630, 150 80.090 C 150 80.549, 152.625 82.708, 155.834 84.887 L 161.667 88.849 162.584 86.430 L 163.500 84.011 171.630 86.849 C 188.356 92.688, 201.707 104.521, 209.599 120.500 C 213.899 129.206, 216.947 140.042, 216.983 146.750 C 216.999 149.721, 217.269 150, 220.129 150 L 223.258 150 222.571 143.750 C 220.603 125.858, 214.363 112.410, 202.112 99.660 C 192.677 89.841, 182.211 83.514, 169.500 79.946 C 164.515 78.546, 163.513 77.901, 163.579 76.131 C 163.679 73.463, 162.871 73.521, 155.750 76.693 M 102.383 75.890 C 92.279 78.492, 82.999 86.168, 78.358 95.762 C 75.970 100.699, 75.577 102.756, 75.541 110.500 C 75.496 120.279, 77.248 125.711, 82.778 132.945 L 85.495 136.500 86.155 131.112 C 86.975 124.417, 89.268 121.170, 95.314 118.138 L 100.025 115.776 98.012 112.520 C 95.178 107.934, 95.297 100.338, 98.274 95.921 C 101.236 91.526, 108.347 88.467, 113.399 89.415 C 123.994 91.403, 129.425 105.105, 122.903 113.396 L 120.858 115.996 123.679 117.018 C 131.517 119.860, 134.565 123.544, 135.654 131.493 L 136.306 136.246 138.223 133.873 C 139.278 132.568, 141.542 128.601, 143.255 125.058 C 145.921 119.541, 146.361 117.529, 146.319 111.058 C 146.193 91.452, 131.821 76.196, 112.720 75.392 C 108.749 75.224, 104.097 75.449, 102.383 75.890 M 106.303 96.197 C 103.443 97.578, 100.925 102.953, 101.682 106.059 C 103.170 112.170, 109.563 115.312, 114.897 112.553 C 125.881 106.873, 117.443 90.815, 106.303 96.197 M 100.590 122.387 C 93.774 124.310, 92.050 126.884, 92.022 135.178 L 92 141.856 97.750 144.063 C 106.245 147.324, 116.707 147.196, 124.258 143.740 L 130 141.111 129.985 135.805 C 129.967 129.354, 128.489 126.190, 124.368 123.783 C 120.126 121.306, 107.131 120.543, 100.590 122.387 M 175.329 149.879 C 164.819 153.774, 156.349 161.534, 151.222 171.963 C 148.738 177.016, 148.500 178.506, 148.500 189 C 148.500 199.414, 148.756 201.046, 151.209 206.281 C 155.209 214.818, 163.509 223.013, 172.270 227.074 C 178.887 230.142, 180.305 230.425, 189 230.406 C 196.435 230.390, 199.695 229.906, 204 228.178 C 215.219 223.676, 223.686 215.207, 228.173 204 C 229.881 199.735, 230.388 196.366, 230.430 189 C 230.481 180.240, 230.222 178.937, 227.103 172.270 C 222.994 163.482, 214.753 155.162, 206.281 151.246 C 198.448 147.625, 183.223 146.953, 175.329 149.879 M 77.429 156.250 C 79.463 174.740, 86.689 189.649, 99.660 202.112 C 109.432 211.502, 118.196 216.600, 130.500 220.054 C 135.485 221.454, 136.487 222.099, 136.421 223.869 C 136.377 225.041, 136.685 226, 137.105 226 C 138.759 226, 150 220.688, 150 219.907 C 150 219.449, 147.375 217.292, 144.166 215.113 L 138.333 211.151 137.416 213.570 L 136.500 215.989 128.370 213.151 C 111.644 207.312, 98.293 195.479, 90.401 179.500 C 86.101 170.794, 83.053 159.958, 83.017 153.250 C 83.001 150.279, 82.731 150, 79.871 150 L 76.742 150 77.429 156.250 M 182.355 153.998 C 166.179 157.361, 153.717 172.291, 153.642 188.396 C 153.602 196.773, 155.806 204.052, 160.231 210.161 L 163.350 214.465 164.703 208.508 C 166.339 201.304, 169.659 197.481, 175.969 195.536 C 178.461 194.768, 180.020 194.108, 179.434 194.070 C 177.644 193.953, 174 186.435, 174.002 182.864 C 174.004 178.162, 176.873 172.962, 181 170.181 C 183.928 168.208, 185.448 167.889, 190.301 168.229 C 195.376 168.584, 196.556 169.089, 199.733 172.267 C 202.910 175.443, 203.416 176.625, 203.774 181.699 C 204.124 186.672, 203.816 188.035, 201.621 191.250 C 199.566 194.260, 199.373 195, 200.644 195 C 201.515 195, 204.023 196.009, 206.217 197.242 C 211.025 199.944, 213.998 205.277, 214.005 211.210 L 214.010 215.500 216.491 212.500 C 217.855 210.850, 220.197 207.025, 221.694 204 C 224.036 199.271, 224.423 197.236, 224.459 189.482 C 224.496 181.269, 224.207 179.870, 221.219 173.798 C 214.063 159.253, 197.548 150.839, 182.355 153.998 M 185.476 174.396 C 179.599 176.956, 178.296 184.450, 182.923 189.077 C 186.193 192.347, 189.568 192.792, 193.941 190.530 C 200.388 187.197, 199.549 177.381, 192.568 174.464 C 188.464 172.749, 189.238 172.757, 185.476 174.396 M 176.480 201.870 C 171.638 204.070, 170 207.243, 170 214.424 L 170 219.754 175.250 222.119 C 182.427 225.352, 196.168 225.396, 203.250 222.209 L 208 220.071 208 213.758 C 208 202.947, 203.964 199.985, 189.282 200.022 C 182.950 200.038, 179.378 200.553, 176.480 201.870" stroke="none" fill="#4c545c" fill-rule="evenodd"/></svg>