<svg xmlns="http://www.w3.org/2000/svg" width="300" height="300" viewBox="0 0 300 300" version="1.1"><path d="" stroke="none" fill="#50545c" fill-rule="evenodd"/><path d="M 115.486 67.400 C 85.602 74.246, 63.069 95.527, 54.814 124.701 C 51.674 135.800, 51.688 154.249, 54.846 165.415 C 57.375 174.358, 62.590 185.311, 67.508 192.011 C 72.224 198.435, 81.638 207.163, 88.946 211.887 C 121.848 233.152, 167.393 225.940, 192.284 195.522 L 197.500 189.148 197.769 211.574 L 198.038 234 217.019 234 L 236 234 236 205.598 L 236 177.196 239.710 175.271 C 242.057 174.053, 244.262 171.753, 245.710 169.015 C 247.853 164.963, 248 163.527, 247.994 146.593 C 247.991 136.642, 247.524 126.826, 246.956 124.781 C 245.487 119.490, 241.857 115.631, 235.773 112.892 C 231.097 110.786, 228.935 110.504, 216.664 110.402 L 202.829 110.288 200.251 105.894 C 189.949 88.336, 173.295 75.198, 153.500 69.012 C 144.504 66.201, 124.436 65.350, 115.486 67.400 M 210 72.121 C 206.806 73.391, 202.225 77.728, 200.411 81.200 C 198.357 85.131, 198.636 93.366, 200.977 97.956 C 204.651 105.157, 213.397 109.036, 221.250 106.946 C 230.184 104.569, 235 98.279, 235 88.985 C 235 78.778, 227.368 70.940, 217.550 71.063 C 214.772 71.098, 211.375 71.574, 210 72.121 M 115.026 73.562 C 106.741 75.358, 94.251 81.389, 86.191 87.486 C 74.726 96.158, 65.610 109.659, 60.862 125 C 57.510 135.832, 57.501 154.320, 60.844 164.965 C 71.127 197.713, 98.155 218, 131.500 218 C 148.399 218, 162.637 213.138, 176.704 202.563 C 186.246 195.390, 199.488 177.484, 196.153 176.262 C 193.028 175.117, 187.945 169.549, 186.929 166.157 C 186.248 163.882, 185.960 155.510, 186.167 144 C 186.539 123.323, 187.569 119.474, 193.791 115.500 C 195.514 114.400, 196.940 113.151, 196.961 112.725 C 197.082 110.295, 187.752 98.034, 180.818 91.511 C 171.527 82.771, 159.283 76.222, 147.303 73.584 C 138.582 71.665, 123.827 71.655, 115.026 73.562 M 128.204 82.750 C 128.491 89.286, 128.587 89.510, 131.250 89.816 L 134 90.133 134 83.066 L 134 76 130.954 76 L 127.909 76 128.204 82.750 M 209.106 79.564 C 200.994 86.390, 204.777 99.554, 215.424 101.552 C 223.661 103.097, 231.685 93.636, 229.011 85.533 C 226.277 77.249, 215.646 74.062, 209.106 79.564 M 96.015 85.481 C 95.016 86.686, 95.337 87.939, 97.732 92.178 C 101.066 98.079, 101.821 98.583, 104.448 96.661 C 106.241 95.350, 106.187 95.070, 103.085 89.648 C 99.765 83.845, 98.159 82.899, 96.015 85.481 M 160.086 89.015 C 156.466 94.898, 156.366 95.590, 158.934 96.965 C 161.671 98.430, 161.487 98.570, 165.016 92.318 C 168.050 86.942, 168.125 86.565, 166.420 85.318 C 163.756 83.370, 163.449 83.549, 160.086 89.015 M 129 114.385 L 129 134.770 126.541 136.381 C 125.189 137.267, 123.565 139.721, 122.932 141.834 C 121.421 146.876, 123.659 151.542, 128.575 153.596 C 132.933 155.417, 136.345 154.567, 139.438 150.891 L 141.871 148 155.435 148 L 169 148 169 145 L 169 142 155.615 142 C 142.377 142, 142.212 141.972, 140.562 139.454 C 139.645 138.054, 137.793 136.407, 136.447 135.794 L 134 134.679 134 114.339 L 134 94 131.500 94 L 129 94 129 114.385 M 71.564 110.212 C 70.066 112.350, 70.191 112.535, 75.257 115.690 C 78.141 117.486, 80.954 118.965, 81.509 118.977 C 82.516 119, 85.426 115.072, 84.819 114.509 C 84.184 113.919, 73.902 108, 73.513 108 C 73.293 108, 72.416 108.996, 71.564 110.212 M 183.250 111.153 C 180.363 112.825, 178 114.514, 178 114.905 C 178 115.297, 178.627 116.475, 179.394 117.524 C 180.763 119.396, 180.849 119.396, 184.309 117.533 C 191.188 113.828, 192.364 112.548, 191.084 110.156 C 189.643 107.464, 189.612 107.468, 183.250 111.153 M 204.431 116.881 C 200.219 117.968, 195.619 120.806, 193.918 123.366 C 192.847 124.978, 192.421 130.274, 192.178 145.023 C 191.869 163.726, 191.945 164.661, 194 167.273 C 195.180 168.773, 196.553 170, 197.051 170 C 197.553 170, 198.079 161.189, 198.229 150.250 L 198.500 130.500 201.250 130.184 L 204 129.867 204 178.934 L 204 228 209 228 L 214 228 214 198 L 214 168 217 168 L 220 168 220 198 L 220 228 225 228 L 230 228 230 178.934 L 230 129.867 232.750 130.184 L 235.500 130.500 235.771 150.250 C 235.921 161.189, 236.447 170, 236.949 170 C 237.447 170, 238.788 168.814, 239.927 167.365 C 241.854 164.916, 242 163.432, 242 146.266 C 242 124.792, 241.315 122.241, 234.612 118.771 C 231.245 117.027, 228.418 116.591, 219 116.365 C 212.675 116.213, 206.119 116.445, 204.431 116.881 M 129.082 142.401 C 127.456 144.360, 128.564 147.727, 131.099 148.531 C 133.840 149.401, 136.163 147.204, 135.801 144.086 C 135.575 142.147, 134.853 141.425, 132.914 141.199 C 131.492 141.034, 129.768 141.575, 129.082 142.401 M 62.184 144.750 C 62.490 147.413, 62.714 147.509, 69.250 147.796 L 76 148.091 76 145.046 L 76 142 68.934 142 L 61.867 142 62.184 144.750 M 75.880 173.263 C 70.756 176.215, 70.351 176.698, 71.283 178.750 C 72.604 181.656, 73.212 181.598, 79.585 177.952 C 84.594 175.085, 84.846 174.756, 83.796 172.452 C 83.182 171.103, 82.414 170.006, 82.089 170.013 C 81.765 170.019, 78.971 171.482, 75.880 173.263 M 178.909 172.171 C 177.596 174.624, 178.496 175.601, 185.326 179.137 C 189.284 181.186, 192 180.500, 192 177.451 C 192 176.334, 182.363 170, 180.663 170 C 180.337 170, 179.548 170.977, 178.909 172.171 M 98.072 196.375 C 94.387 202.815, 94.337 203.377, 97.325 204.738 C 99.485 205.723, 99.882 205.376, 102.928 199.835 C 104.731 196.555, 106.047 193.737, 105.853 193.572 C 105.659 193.406, 104.520 192.761, 103.322 192.139 C 101.325 191.101, 100.887 191.454, 98.072 196.375 M 158.750 192.392 C 156.418 194.162, 156.508 194.637, 160.347 200.802 C 163.644 206.097, 163.652 206.102, 165.903 204.280 L 168.157 202.454 164.868 196.727 C 163.059 193.577, 161.336 191.014, 161.039 191.032 C 160.743 191.049, 159.713 191.661, 158.750 192.392 M 128.204 206.750 C 128.491 213.286, 128.587 213.510, 131.250 213.816 L 134 214.133 134 207.066 L 134 200 130.954 200 L 127.909 200 128.204 206.750" stroke="none" fill="#4c545c" fill-rule="evenodd"/></svg>