<svg xmlns="http://www.w3.org/2000/svg" width="300" height="300" viewBox="0 0 300 300" version="1.1"><path d="" stroke="none" fill="#50545c" fill-rule="evenodd"/><path d="M 139.500 74.418 C 127.335 77.222, 117.815 81.903, 107.129 90.337 C 101.148 95.057, 93 104.117, 93 106.047 C 93 106.916, 104.184 116.149, 109.134 119.366 L 111.768 121.078 118.824 114.105 C 126.530 106.491, 136.276 101.068, 145.799 99.097 C 181.409 91.725, 214.386 124.716, 206.879 160.201 C 205.557 166.449, 201.242 176.176, 197.765 180.743 C 195.319 183.957, 195.281 183.968, 193.495 181.994 C 190.714 178.921, 180.301 174.109, 174.876 173.389 C 169.152 172.630, 168.775 171.379, 173 167.154 C 174.785 165.369, 176 163.108, 176 161.570 C 176 160.032, 177.050 158.079, 178.595 156.743 C 183.650 152.374, 185.344 146.385, 182.633 142.473 C 181.881 141.388, 181.058 136.900, 180.803 132.500 C 180.067 119.797, 175.411 111.403, 166.500 106.711 C 163.493 105.128, 160.637 104.595, 154.992 104.566 C 148.530 104.532, 146.818 104.917, 142.700 107.330 C 133.998 112.430, 129.917 120.379, 129.397 133.242 C 129.232 137.337, 128.511 140.860, 127.562 142.214 C 126.703 143.441, 126 145.492, 126 146.772 C 126 149.768, 128.456 154.506, 130.895 156.214 C 131.944 156.948, 133.291 159.368, 133.890 161.590 C 134.488 163.812, 136.108 166.692, 137.489 167.989 C 141.054 171.339, 140.620 172.722, 135.750 173.528 C 129.738 174.522, 122.439 177.428, 118.607 180.351 L 115.331 182.849 112.208 177.675 C 108.617 171.724, 106.524 166.888, 105.534 162.250 C 104.856 159.071, 104.917 159, 108.339 159 C 118.209 159, 117.422 155.880, 104.234 142.733 C 97.736 136.256, 92.674 132, 91.467 132 C 90.248 132, 84.989 136.491, 77.993 143.507 C 68.242 153.286, 66.683 155.275, 67.612 156.757 C 68.371 157.966, 70.280 158.592, 73.847 158.802 C 78.530 159.077, 79.037 159.345, 79.533 161.802 C 85.740 192.517, 104.568 214.394, 132.739 223.628 C 140.839 226.283, 142.631 226.497, 156.500 226.465 C 170.263 226.433, 172.160 226.201, 179.500 223.653 C 203.954 215.162, 221.131 197.988, 229.662 173.500 C 232.247 166.079, 232.449 164.379, 232.449 150 C 232.449 135.621, 232.247 133.921, 229.662 126.500 C 221.118 101.976, 203.741 84.625, 179.500 76.416 C 172.775 74.138, 169.428 73.653, 158.500 73.371 C 149.856 73.147, 143.489 73.498, 139.500 74.418 M 138.500 80.924 C 124.954 84.622, 116.103 89.665, 106.300 99.269 L 100.099 105.344 105.230 109.172 C 108.052 111.277, 110.557 113, 110.797 113 C 111.037 113, 113.878 110.551, 117.112 107.557 C 126.937 98.461, 143.037 92.035, 156 92.035 C 180.140 92.035, 203.780 109.523, 210.981 132.708 C 221.083 165.235, 200.902 199.483, 167.500 206.496 C 158.665 208.351, 153.311 208.349, 144.529 206.489 C 122.905 201.908, 104.467 184.313, 100.003 164 C 98.304 156.266, 98.851 153.631, 102.286 153.006 C 105.054 152.503, 105.025 152.453, 98.036 145.527 L 91 138.554 83.961 145.527 L 76.921 152.500 80.710 153 L 84.499 153.500 85.228 159.500 C 87.002 174.116, 95.263 190.129, 106.672 201.068 C 114.957 209.012, 122.899 213.927, 133.510 217.676 C 140.870 220.277, 142.643 220.500, 156 220.500 C 169.357 220.500, 171.130 220.277, 178.490 217.676 C 199.765 210.159, 216.259 193.665, 223.669 172.500 C 226.240 165.156, 226.470 163.311, 226.470 150 C 226.470 136.672, 226.243 134.854, 223.661 127.510 C 216.189 106.250, 199.574 89.644, 178.500 82.371 C 167.733 78.655, 149.259 77.987, 138.500 80.924 M 148.604 110.986 C 144.826 112.185, 140.349 116.499, 137.691 121.500 C 136.027 124.632, 135.589 127.128, 135.674 133 C 135.733 137.125, 135.944 141.625, 136.141 143 C 136.423 144.965, 136.019 145.568, 134.250 145.820 C 130.608 146.337, 131.710 150.500, 135.489 150.500 C 137.120 150.500, 137.723 151.632, 138.834 156.789 C 139.833 161.422, 140.824 163.494, 142.595 164.654 C 144.623 165.983, 145 167.043, 145 171.415 C 145 174.267, 144.460 177.140, 143.800 177.800 C 142.299 179.301, 143.043 179.947, 149.789 182.991 L 155.078 185.378 160.539 182.700 C 165.875 180.083, 167.020 178.748, 165 177.500 C 164.450 177.160, 164 174.445, 164 171.467 C 164 166.520, 164.247 165.923, 166.861 164.572 C 169.254 163.334, 169.916 162.105, 170.911 157.046 C 171.565 153.721, 172.528 150.933, 173.050 150.850 C 173.573 150.767, 174.563 150.655, 175.250 150.600 C 176.850 150.472, 177.965 148.948, 177.985 146.861 C 177.994 145.909, 177.267 145.280, 176.250 145.361 C 174.874 145.470, 174.500 144.710, 174.500 141.798 C 174.500 139.460, 174.150 138.447, 173.550 139.048 C 171.667 140.935, 169.955 139.927, 168.387 136.010 C 167.076 132.732, 166.110 131.837, 162.973 130.993 C 160.873 130.427, 158.967 129.410, 158.738 128.732 C 158.475 127.956, 156.837 128.836, 154.314 131.109 C 146.580 138.074, 136 140.022, 136 134.481 C 136 132.382, 136.470 132, 139.050 132 C 143.052 132, 146.863 129.951, 153.006 124.495 C 155.771 122.039, 159.157 119.748, 160.530 119.403 C 163.587 118.636, 166.258 120.612, 165.479 123.066 C 165.076 124.337, 165.716 125.230, 167.707 126.175 C 169.277 126.920, 171.524 129.471, 172.838 132 L 175.177 136.500 174.772 130.946 C 173.898 118.929, 166.878 110.938, 156.690 110.360 C 153.835 110.199, 150.197 110.480, 148.604 110.986 M 130.500 181.119 C 127.200 182.166, 123.376 183.967, 122.002 185.122 L 119.504 187.222 122.877 190.039 C 134.378 199.640, 151.528 203.940, 166.201 200.903 C 172.265 199.648, 184.142 194.144, 188.350 190.639 L 191.199 188.266 188.350 185.616 C 185.600 183.059, 176.467 179, 173.462 179 C 172.607 179, 172 179.946, 172 181.277 C 172 183.136, 170.452 184.322, 163.576 187.732 L 155.151 191.910 146.126 187.788 C 139.099 184.578, 137.034 183.173, 136.800 181.441 L 136.500 179.217 130.500 181.119" stroke="none" fill="#4c545c" fill-rule="evenodd"/></svg>