<svg xmlns="http://www.w3.org/2000/svg" width="300" height="300" viewBox="0 0 300 300" version="1.1"><path d="" stroke="none" fill="#50545c" fill-rule="evenodd"/><path d="M 136.314 64.950 C 134.561 66.019, 132.649 67.787, 132.064 68.881 C 131.475 69.982, 131 76.454, 131 83.390 L 131 95.912 122.005 101.706 L 113.010 107.500 113.005 128.096 L 113 148.693 107.750 146.879 C 100.272 144.295, 86.932 144.379, 78.771 147.060 C 66.116 151.218, 54.935 161.914, 49.903 174.676 C 48.023 179.443, 47.606 182.405, 47.606 191 C 47.606 203.426, 49.583 209.601, 56.486 218.743 C 65.101 230.153, 76.162 236.005, 90.560 236.771 C 105.428 237.561, 116.623 233.269, 126.382 223.038 C 133.562 215.511, 137.067 208.472, 139.474 196.750 L 140.038 194 193.519 194 L 247 194 247 150.630 L 247 107.260 238 101.554 L 229 95.849 229 89.956 L 229 84.063 240.738 83.782 C 250.833 83.539, 252.521 83.263, 252.800 81.808 C 253.004 80.743, 251.990 79.529, 250.062 78.532 C 247.512 77.214, 247 76.351, 247 73.374 C 247 70.643, 246.198 68.998, 243.600 66.400 L 240.200 63 189.850 63.004 C 141.758 63.007, 139.357 63.095, 136.314 64.950 M 139.313 69.786 C 136.347 71.671, 135.881 76.444, 136.587 97.694 L 137.293 118.945 158.284 132.519 C 169.830 139.985, 179.842 145.960, 180.534 145.797 C 181.226 145.634, 191.277 139.425, 202.869 132 L 223.945 118.500 223.973 108.901 C 223.988 103.621, 223.709 95.859, 223.353 91.651 L 222.707 84 188.308 84 L 153.909 84 151.455 81.545 C 150.008 80.099, 149 77.932, 149 76.268 C 149 70.652, 143.616 67.049, 139.313 69.786 M 154.372 73.250 C 154.973 75.588, 155.923 77.831, 156.483 78.235 C 157.042 78.639, 176.561 78.976, 199.857 78.985 C 238.074 78.999, 242.155 78.845, 241.607 77.418 C 241.273 76.548, 241 75.005, 241 73.990 C 241 72.974, 240.293 71.436, 239.429 70.571 C 238.050 69.192, 232.679 69, 195.568 69 L 153.278 69 154.372 73.250 M 170.745 93.947 C 164.249 98.066, 160.718 103.749, 160.199 110.919 C 159.323 123.037, 167.332 131, 180.396 131 C 186.180 131, 189.388 129.173, 188.351 126.471 C 187.934 125.385, 186.086 125, 181.297 125 C 173.923 125, 170.215 123.327, 167.536 118.791 C 164.241 113.214, 165.588 106.596, 171.118 101.189 C 175.090 97.305, 177.433 96.595, 184.143 97.240 C 192.381 98.031, 194.454 101.274, 194.101 112.816 C 194.009 115.825, 193.745 116.103, 191.250 115.816 C 189.395 115.603, 188.622 115.012, 188.874 114 C 189.079 113.175, 189.304 110.548, 189.374 108.162 C 189.530 102.788, 186.679 100, 181.026 100 C 176.452 100, 172.533 103.489, 170.870 109.040 C 168.583 116.672, 175.097 123.912, 181.931 121.332 C 183.585 120.708, 185.362 120.615, 186.145 121.111 C 188.849 122.824, 195.590 122.110, 197.592 119.898 C 200.417 116.777, 200.815 103.805, 198.233 99 C 193.871 90.882, 179.688 88.275, 170.745 93.947 M 126.190 105.989 L 121.880 108.822 126.440 111.959 L 131 115.096 131 109.048 C 131 105.722, 130.887 103.035, 130.750 103.078 C 130.613 103.121, 128.561 104.430, 126.190 105.989 M 229 108.956 L 229 115.025 233.250 112.378 C 235.588 110.922, 237.692 109.562, 237.927 109.355 C 238.403 108.936, 235.911 106.984, 231.750 104.517 L 229 102.887 229 108.956 M 177.557 108.223 C 174.782 112.184, 176.175 116.714, 179.813 115.559 C 181.980 114.872, 184.611 108.797, 183.512 107.020 C 182.421 105.255, 179.177 105.910, 177.557 108.223 M 119 150.488 L 119 185.975 124.750 182.299 C 152.359 164.648, 173.538 150.762, 173.722 150.190 C 173.938 149.518, 120.879 115, 119.629 115 C 119.283 115, 119 130.969, 119 150.488 M 213.797 131.815 C 199.661 140.992, 187.650 148.950, 187.106 149.500 C 186.450 150.164, 195.351 156.454, 213.559 168.195 L 241 185.890 241 150.445 C 241 130.950, 240.662 115.029, 240.250 115.065 C 239.838 115.100, 227.934 122.638, 213.797 131.815 M 86.594 151.038 C 73.902 153.214, 60.402 164.089, 55.959 175.715 C 52.896 183.731, 52.302 194.088, 54.476 201.567 C 56.430 208.288, 59.859 214.579, 63.360 217.868 L 65.751 220.115 66.182 214.155 C 66.828 205.230, 70.720 200.974, 81.337 197.583 C 83.033 197.041, 82.975 196.759, 80.587 193.921 C 79.164 192.230, 77.719 189.729, 77.376 188.363 C 76.391 184.437, 77.602 177.016, 79.699 174.136 C 82.125 170.802, 89.479 167, 93.500 167 C 95.192 167, 98.582 168.012, 101.034 169.250 C 110.572 174.064, 112.990 187.031, 105.784 194.724 C 103.770 196.874, 103.764 196.967, 105.600 197.520 C 106.645 197.835, 109.525 199.084, 112 200.296 C 117.473 202.976, 121 209.086, 121 215.886 L 121 220.349 123.369 218.123 C 127.556 214.190, 133.902 200.223, 133.988 194.750 C 133.995 194.338, 129.275 194, 123.500 194 L 113 194 113 174.572 L 113 155.144 107.750 153.200 C 101.208 150.778, 93.001 149.939, 86.594 151.038 M 153.534 170.756 L 127.568 187.500 154.354 187.766 C 169.087 187.913, 192.734 187.913, 206.903 187.766 L 232.665 187.500 207.537 171.297 C 193.717 162.386, 181.755 154.851, 180.955 154.553 C 180.116 154.241, 168.497 161.107, 153.534 170.756 M 88.500 174.161 C 84.946 176.115, 83.045 179.366, 83.022 183.527 C 82.981 190.935, 89.237 195.878, 96.215 193.951 C 100.963 192.640, 103.141 189.925, 103.745 184.568 C 104.212 180.428, 103.962 179.762, 100.727 176.527 C 96.976 172.776, 92.569 171.923, 88.500 174.161 M 86 202.607 C 84.625 202.862, 81.578 203.770, 79.229 204.626 C 73.659 206.654, 72 209.905, 72 218.790 C 72 225.168, 72.185 225.763, 74.500 226.818 L 77 227.957 77 221.479 C 77 215.235, 77.091 215, 79.500 215 C 81.941 215, 82 215.174, 82 222.383 C 82 231.009, 81.939 230.964, 93.668 230.986 C 104.065 231.006, 104 231.060, 104 222.393 L 104 215 106.954 215 C 109.895 215, 109.910 215.031, 110.204 221.524 L 110.500 228.048 112.750 226.468 C 114.708 225.092, 115 224.004, 115 218.078 C 115 210.253, 113.029 206.746, 107.280 204.343 C 103.782 202.882, 90.404 201.791, 86 202.607" stroke="none" fill="#4c545c" fill-rule="evenodd"/></svg>