<svg xmlns="http://www.w3.org/2000/svg" width="300" height="300" viewBox="0 0 300 300" version="1.1"><path d="" stroke="none" fill="#50545c" fill-rule="evenodd"/><path d="M 137.142 68.999 C 128.317 72.174, 121.075 78.419, 116.847 86.500 C 115.696 88.700, 114.614 90.658, 114.443 90.850 C 114.272 91.043, 112.415 89.840, 110.316 88.178 C 106.366 85.049, 98.836 82.465, 96.395 83.402 C 95.243 83.844, 95 89.309, 95 114.726 L 95 145.515 120 170.500 C 142.244 192.730, 145 195.837, 145 198.682 C 145 201.655, 144.737 201.901, 141.250 202.190 L 137.500 202.500 137.212 215.500 C 137.053 222.650, 137.175 229.519, 137.484 230.763 L 138.045 233.027 171.272 232.763 L 204.500 232.500 204.500 217.500 C 204.500 202.706, 204.469 202.496, 202.250 202.180 L 200 201.861 200 152.399 C 200 110.774, 199.777 102.852, 198.591 102.397 C 197.275 101.891, 192.778 102.852, 188.750 104.499 C 187.313 105.086, 187 104.677, 187 102.212 C 187 97.160, 183.182 86.759, 179.491 81.757 C 175.386 76.194, 167.204 70.468, 160.461 68.438 C 153.788 66.430, 143.604 66.675, 137.142 68.999 M 141 73.935 C 135.704 75.552, 130.213 79.022, 126.569 83.055 C 110.550 100.787, 118.376 127.821, 141.472 134.535 C 156.784 138.986, 173.276 130.481, 179.065 115.147 C 181.944 107.523, 181.403 97.642, 177.711 90.392 C 174.437 83.962, 166.405 76.667, 160.316 74.592 C 155.481 72.945, 145.371 72.601, 141 73.935 M 146 83 C 146 85.683, 145.675 86, 142.923 86 C 140.856 86, 138.887 86.959, 136.923 88.923 C 134.530 91.316, 134 92.690, 134 96.500 C 134 100.310, 134.530 101.684, 136.923 104.077 C 138.887 106.041, 140.856 107, 142.923 107 C 145.903 107, 146 107.142, 146 111.500 C 146 115.580, 145.776 116, 143.607 116 C 142.291 116, 140.955 115.325, 140.638 114.500 C 140.322 113.675, 138.924 113, 137.531 113 C 135.648 113, 135 113.524, 135 115.045 C 135 118.147, 139.407 122, 142.955 122 C 145.672 122, 146 122.323, 146 125 C 146 127.667, 146.333 128, 149 128 C 151.667 128, 152 127.667, 152 125 C 152 122.317, 152.325 122, 155.077 122 C 157.144 122, 159.113 121.041, 161.077 119.077 C 163.470 116.684, 164 115.310, 164 111.500 C 164 107.690, 163.470 106.316, 161.077 103.923 C 159.113 101.959, 157.144 101, 155.077 101 C 152.097 101, 152 100.858, 152 96.500 C 152 92.396, 152.215 92, 154.441 92 C 155.784 92, 157.160 92.450, 157.500 93 C 157.840 93.550, 159.216 94, 160.559 94 C 162.317 94, 163 93.451, 163 92.039 C 163 89.066, 159.096 86, 155.311 86 C 152.299 86, 152 85.729, 152 83 C 152 80.333, 151.667 80, 149 80 C 146.333 80, 146 80.333, 146 83 M 101 116.758 L 101 143.515 125.500 168 L 150 192.485 150 197.242 L 150 202 172.500 202 L 195 202 195 155.500 C 195 103.683, 195.281 105.519, 188.400 112.400 C 185.224 115.576, 185 116.232, 185 122.365 C 185 127.601, 184.168 131.159, 180.885 139.952 C 174.909 155.960, 169.790 159.981, 155.372 159.994 C 148.976 160, 146.442 158.617, 147.551 155.727 C 147.993 154.575, 150.147 154.109, 156.319 153.832 C 162.130 153.571, 165.294 152.931, 167.239 151.624 C 170.277 149.583, 170.169 149.150, 165.238 143.585 L 161.977 139.904 156.051 141.070 C 143.989 143.443, 130.756 138.890, 122.060 129.375 L 117 123.839 117 127.189 C 117 130.091, 118.273 131.807, 126.500 140 C 136.418 149.877, 138.536 154, 133.690 154 C 132.081 154, 128.286 150.856, 121.190 143.645 L 111 133.290 111 116.095 C 111 103.037, 110.651 98.227, 109.551 96.099 C 108.114 93.319, 104.023 90, 102.035 90 C 101.347 90, 101 98.980, 101 116.758 M 140.394 93.416 C 140.095 94.194, 139.997 96.107, 140.175 97.666 C 140.433 99.915, 141.067 100.565, 143.250 100.816 C 145.895 101.121, 146 100.958, 146 96.566 C 146 92.347, 145.808 92, 143.469 92 C 142.076 92, 140.693 92.637, 140.394 93.416 M 152 111.500 C 152 115.964, 152.100 116.121, 154.750 115.816 C 157.239 115.530, 157.500 115.120, 157.500 111.500 C 157.500 107.880, 157.239 107.470, 154.750 107.184 C 152.100 106.879, 152 107.036, 152 111.500 M 173.234 132.890 L 167.967 137.688 170.056 140.344 C 171.205 141.805, 172.479 143, 172.888 143 C 173.296 143, 174.820 139.625, 176.275 135.500 C 177.729 131.375, 178.824 128.020, 178.709 128.045 C 178.594 128.070, 176.130 130.250, 173.234 132.890 M 143 217 L 143 227 171 227 L 199 227 199 217 L 199 207 171 207 L 143 207 143 217 M 187.447 215.441 C 185.891 217.816, 185.888 218.180, 187.408 220.500 C 190.714 225.546, 198.397 221.894, 196.414 216.220 C 195.045 212.301, 189.802 211.846, 187.447 215.441" stroke="none" fill="#4c545c" fill-rule="evenodd"/></svg>