<svg xmlns="http://www.w3.org/2000/svg" width="300" height="300" viewBox="0 0 300 300" version="1.1"><path d="" stroke="none" fill="#50545c" fill-rule="evenodd"/><path d="M 183.655 69.829 C 182.625 70.967, 182 73.377, 182 76.210 L 182 80.763 177.250 81.959 C 172.989 83.032, 172.397 82.971, 171.500 81.366 C 169.789 78.305, 165.224 74, 163.690 74 C 161.237 74, 152.544 80.371, 152.146 82.461 C 151.940 83.539, 152.808 86.317, 154.074 88.635 L 156.375 92.847 152.995 96.005 L 149.615 99.162 144.794 96.903 L 139.972 94.645 137.192 96.700 C 134.494 98.695, 134.311 98.703, 130.956 96.992 C 125.758 94.340, 116.277 92.692, 110.277 93.397 C 89.213 95.873, 77.005 111.520, 76.589 136.574 C 76.444 145.305, 76.127 147.023, 74.211 149.459 C 69.878 154.967, 72.235 165.274, 78.792 169.500 C 81.242 171.078, 82.163 172.660, 83.161 177 C 84.063 180.920, 85.534 183.702, 88.281 186.686 C 91.371 190.040, 92.073 191.509, 91.818 194.080 C 91.501 197.280, 91.444 197.310, 70.065 205.643 C 58.277 210.238, 47.581 214.984, 46.299 216.189 C 43.550 218.772, 41.685 224.328, 42.161 228.518 C 42.437 230.942, 42.968 231.500, 45 231.500 C 47.047 231.500, 47.553 230.956, 47.790 228.500 C 48.240 223.859, 49.919 220.379, 52.316 219.123 C 53.517 218.494, 61.925 215.104, 71 211.590 L 87.500 205.201 87.803 207.958 C 88.074 210.429, 89.368 211.300, 100.303 216.371 C 107.011 219.483, 113.026 222.022, 113.670 222.014 C 114.313 222.006, 120.051 219.551, 126.420 216.559 C 137.483 211.360, 138 210.981, 138 208.059 C 138 206.376, 138.396 205, 138.879 205 C 139.867 205, 172.016 217.077, 176.182 219.013 C 179.022 220.333, 180.731 223.558, 181.210 228.500 C 181.447 230.956, 181.953 231.500, 184 231.500 C 186.346 231.500, 186.498 231.185, 186.464 226.375 C 186.436 222.405, 185.830 220.466, 183.774 217.770 C 181.404 214.663, 178.673 213.374, 158.310 205.752 C 135.744 197.306, 135.497 197.181, 135.190 194.148 C 134.935 191.630, 135.674 190.315, 139.327 186.791 C 143.128 183.123, 143.878 181.727, 144.490 177.182 C 145.070 172.877, 145.673 171.651, 147.652 170.749 C 149.802 169.769, 150.476 170.015, 153.249 172.788 L 156.402 175.940 154.132 179.978 C 151.137 185.308, 151.671 187.837, 156.500 191.201 C 162.126 195.120, 166.624 194.713, 169.778 190 C 172.654 185.702, 172.876 185.620, 177.926 186.980 C 181.974 188.070, 182 188.108, 182 192.884 C 182 199.305, 183.915 201, 191.174 201 C 198.107 201, 200 199.226, 200 192.729 L 200 188.116 204.750 186.710 C 209.972 185.165, 210.028 185.193, 213.203 190.925 C 214.571 193.394, 215.557 193.999, 218.203 193.996 C 221.402 193.993, 227.745 190.904, 229.235 188.624 C 230.549 186.612, 230.042 182.804, 228.025 179.540 L 226.050 176.344 229.517 172.983 L 232.985 169.622 236.526 171.311 C 240.267 173.095, 243.802 173.457, 245.553 172.235 C 247.630 170.785, 251 164.213, 251 161.611 C 251 159.622, 249.924 158.200, 246.696 155.925 L 242.392 152.891 243.423 148.446 C 244.439 144.067, 244.517 144, 248.593 144 C 251.264 144, 253.664 143.266, 255.365 141.927 C 257.612 140.160, 258 139.084, 258 134.619 C 258 127.542, 256.458 125.703, 249.964 125.038 C 244.787 124.508, 244.694 124.440, 243.460 120.246 L 242.209 115.992 246.354 113.215 C 251.583 109.713, 252.118 106.583, 248.534 100.468 C 245.244 94.854, 242.523 94.063, 237.144 97.159 L 233.099 99.488 229.579 96.077 L 226.060 92.666 228.114 89.012 C 231.428 83.115, 230.454 80.011, 224.245 76.684 C 217.914 73.291, 215.837 73.713, 212.450 79.079 C 211.089 81.236, 209.730 83, 209.430 83 C 209.131 83, 206.886 82.497, 204.443 81.881 L 200 80.763 200 75.416 C 200 69.003, 198.746 68, 190.721 68 C 186.749 68, 184.870 68.486, 183.655 69.829 M 188 78.500 C 188 84.346, 185.992 86.304, 178.330 87.930 C 170.304 89.633, 168.935 89.218, 166.191 84.243 C 164.289 80.795, 163.542 80.187, 162.177 80.970 C 157.772 83.499, 157.754 83.548, 159.923 87.105 C 163.154 92.405, 162.630 94.954, 157.216 100.288 C 151.751 105.670, 148.744 106.241, 143.368 102.918 C 139.380 100.454, 138.993 101.790, 142.386 106.317 C 146.256 111.481, 149.098 117.864, 150.431 124.389 L 151.680 130.500 152.430 126.500 C 154.567 115.118, 163.444 104.053, 174.725 98.709 C 180.961 95.755, 182.296 95.502, 191.500 95.521 C 200.692 95.540, 202.032 95.800, 208.089 98.745 C 223.904 106.434, 233.297 124.555, 230.064 141.138 C 226.563 159.093, 212.147 172.182, 194.217 173.685 C 179.278 174.937, 163.635 166.520, 156.703 153.500 L 155.106 150.500 155.666 154.142 C 155.974 156.145, 155.676 159.452, 155.003 161.491 C 153.803 165.126, 153.860 165.281, 157.890 169.387 C 162.570 174.157, 163.010 176.831, 159.942 181.863 C 158.815 183.712, 158.029 185.339, 158.196 185.477 C 159.760 186.773, 163.240 187.970, 164.028 187.483 C 164.570 187.148, 165.710 185.528, 166.559 183.885 C 168.801 179.551, 171.411 178.974, 178.990 181.135 C 186.569 183.296, 188 184.814, 188 190.691 C 188 194.949, 188.042 195, 191.500 195 L 195 195 195 190.122 C 195 184.255, 196.138 183.094, 204.015 180.928 C 210.926 179.028, 213.317 179.728, 216.118 184.475 C 218.372 188.295, 219.518 188.681, 222.317 186.559 C 224.065 185.234, 224.056 185.030, 222.067 181.131 C 220.930 178.903, 220 176.367, 220 175.497 C 220 173.526, 228.534 164.283, 231.108 163.466 C 232.181 163.125, 234.966 163.842, 237.511 165.113 C 241.942 167.325, 242.039 167.331, 243.476 165.431 C 245.660 162.544, 245.347 161.642, 241.431 159.533 C 236.114 156.669, 235.507 154.830, 237.504 147.632 C 239.793 139.384, 241.180 138, 247.155 138 L 252 138 252 134.500 L 252 131 247.155 131 C 241.189 131, 239.938 129.703, 237.636 121.131 C 235.651 113.739, 236.526 111.267, 241.923 109.032 C 245.432 107.578, 245.622 106.880, 243.425 103.525 L 241.849 101.121 238.675 103.057 C 233.546 106.184, 230.928 105.586, 225.163 99.971 C 222.323 97.205, 220 94.262, 220 93.431 C 220 92.600, 220.900 90.156, 222 88 C 223.100 85.844, 224 83.848, 224 83.566 C 224 83.283, 222.679 82.368, 221.065 81.534 C 218.331 80.120, 218.088 80.147, 217.524 81.925 C 217.190 82.976, 216.003 84.997, 214.886 86.418 C 212.605 89.318, 210.062 89.588, 202.890 87.694 C 196.200 85.927, 195 84.586, 195 78.878 L 195 74 191.500 74 C 188.019 74, 188 74.024, 188 78.500 M 106.500 99.917 C 93.214 103.594, 85.038 114.145, 82.655 130.690 C 81.786 136.720, 81.899 139.188, 83.310 145.069 C 84.247 148.974, 84.731 152.626, 84.386 153.185 C 84.040 153.744, 82.462 153.942, 80.879 153.626 C 78.231 153.096, 78 153.285, 78 155.978 C 78 160.388, 80.006 164.240, 81.609 162.910 C 84.725 160.323, 86.252 162.315, 88.080 171.350 C 89.901 180.350, 91.677 183.533, 95.750 185.090 C 97.786 185.869, 98 186.614, 98 192.919 C 98 198.845, 97.689 200.105, 95.918 201.345 C 94.604 202.265, 93.958 203.638, 94.168 205.063 C 94.430 206.848, 96.534 208.239, 104.201 211.696 L 113.901 216.070 122.951 211.525 C 130.522 207.722, 132 206.593, 132 204.612 C 132 203.310, 131.325 201.685, 130.500 201 C 129.433 200.115, 129 197.772, 129 192.891 C 129 186.092, 129.031 186.014, 132.250 184.668 C 136.834 182.752, 137.575 181.506, 139.387 172.660 C 141.334 163.156, 141.596 162.690, 144.653 163.274 C 147.698 163.856, 150 160.844, 150 156.277 C 150 153.272, 149.740 153, 146.868 153 C 143.749 153, 143.739 152.984, 144.387 148.750 C 146.052 137.867, 146.185 133.614, 145.042 127.783 C 142.581 115.223, 136.044 105.771, 127.016 101.714 C 122.119 99.514, 111.362 98.571, 106.500 99.917 M 178.582 103.420 C 171.574 106.373, 164.859 112.572, 161.167 119.500 C 158.791 123.957, 158.501 125.586, 158.501 134.500 C 158.500 143.046, 158.837 145.132, 160.821 148.849 C 164.355 155.473, 170.600 161.656, 176.858 164.730 C 181.679 167.097, 183.736 167.500, 191 167.500 C 201.208 167.500, 208.312 164.688, 215 158 C 221.477 151.523, 224.422 144.204, 224.465 134.482 C 224.496 127.397, 224.117 125.685, 221.208 119.774 C 215.427 108.025, 205.961 101.935, 192.500 101.302 C 185.691 100.983, 183.619 101.298, 178.582 103.420 M 118.973 117.684 C 117.613 118.610, 113.874 121.772, 110.664 124.710 C 103.459 131.307, 96.402 135, 91.002 135 C 88.296 135, 86.743 135.506, 86.357 136.513 C 85.370 139.084, 87.961 141, 92.426 141 C 98.099 141, 105.834 136.974, 113.116 130.232 C 116.386 127.205, 119.160 124.902, 119.281 125.114 C 119.401 125.326, 119.995 126.400, 120.599 127.500 C 121.263 128.707, 123.634 129.987, 126.579 130.729 C 131.966 132.085, 134.186 134.340, 135.958 140.254 C 136.900 143.398, 137.528 144.065, 139.309 143.812 C 146.846 142.739, 136.514 125, 128.352 125 C 125.584 125, 125.506 124.683, 127.523 121.606 C 128.360 120.328, 128.762 118.543, 128.416 117.641 C 127.581 115.466, 122.193 115.491, 118.973 117.684 M 151 144.345 C 151 145.635, 151.842 147.452, 152.871 148.384 C 154.683 150.023, 154.709 149.949, 153.665 146.039 C 152.480 141.600, 151 140.659, 151 144.345" stroke="none" fill="#4c545c" fill-rule="evenodd"/></svg>