<svg xmlns="http://www.w3.org/2000/svg" width="300" height="300" viewBox="0 0 300 300" version="1.1"><path d="" stroke="none" fill="#50545c" fill-rule="evenodd"/><path d="M 143.605 61.862 C 139.276 64.805, 136.833 69.315, 136.833 74.365 C 136.833 83.477, 142.468 88.990, 151.789 88.996 C 156.564 89, 157.486 88.618, 161.289 85.072 C 165.409 81.228, 165.500 81.002, 165.500 74.588 C 165.500 68.363, 165.314 67.847, 161.801 64.334 C 158.535 61.068, 157.423 60.592, 152.301 60.264 C 147.753 59.973, 145.875 60.318, 143.605 61.862 M 144.974 68.527 C 139.681 74.162, 143.797 83.400, 151.602 83.400 C 159.048 83.400, 162.873 73.782, 157.545 68.455 C 154.119 65.028, 148.229 65.063, 144.974 68.527 M 139.764 90.996 C 134.665 92.531, 130.326 95.951, 128.588 99.804 C 127.127 103.045, 126.907 106.151, 127.179 119.758 L 127.500 135.874 130.437 138.937 C 132.052 140.622, 133.965 142, 134.687 142 C 135.698 142, 136 144.746, 136 153.920 L 136 165.839 131.160 167.447 C 124.704 169.591, 118.600 174.216, 116.565 178.504 L 114.906 182 102.203 181.957 L 89.500 181.915 93.989 177.974 L 98.478 174.034 96.303 171.858 L 94.128 169.683 86.314 176.980 C 82.016 180.994, 78.500 184.626, 78.500 185.052 C 78.500 185.478, 82.100 189.015, 86.500 192.911 L 94.500 199.996 96.340 197.777 C 98.161 195.579, 98.139 195.520, 94.128 191.779 L 90.077 188 102.789 188.038 L 115.500 188.076 118.149 191.909 C 121.627 196.942, 130.747 201.491, 140.521 203.068 L 148 204.274 148 215.840 L 148 227.406 144.180 223.676 C 140.398 219.983, 140.341 219.965, 138.563 221.931 C 136.821 223.855, 136.860 224.034, 139.801 227.708 C 141.470 229.794, 144.842 233.452, 147.295 235.838 L 151.755 240.176 156.255 235.338 C 158.730 232.677, 162.002 229.005, 163.527 227.178 C 166.289 223.868, 166.292 223.848, 164.323 221.878 C 162.353 219.909, 162.330 219.919, 158.173 224.428 L 154 228.955 154 216.593 L 154 204.230 159.733 203.514 C 171.359 202.062, 181.696 196.930, 185.445 190.750 C 187.104 188.014, 187.171 188, 198.259 188 L 209.406 188 205.660 191.836 C 201.984 195.601, 201.948 195.714, 203.707 197.878 L 205.500 200.083 213.875 192.292 L 222.251 184.500 214.051 177.102 L 205.852 169.704 203.748 171.808 L 201.644 173.912 206.072 177.915 L 210.500 181.918 198.858 181.959 C 187.372 181.999, 187.209 181.968, 186.611 179.588 C 185.695 175.937, 177.834 169.608, 171.571 167.480 L 166 165.586 166 154.392 L 166 143.198 169.549 141.104 C 174.928 137.930, 176 134.219, 176 118.776 C 176 111.467, 175.559 103.949, 175.020 102.069 C 173.609 97.149, 169.327 93.175, 163.609 91.476 C 158.314 89.904, 144.326 89.622, 139.764 90.996 M 140.313 97.048 C 138.560 97.585, 136.198 99.205, 135.063 100.647 C 133.192 103.026, 133 104.635, 133 117.944 C 133 129.298, 133.332 133.057, 134.468 134.559 C 135.780 136.293, 135.940 134.878, 135.968 121.250 L 136 106 139 106 L 142 106 142 143.500 L 142 181 144.982 181 L 147.963 181 148.232 157.750 L 148.500 134.500 151.250 134.184 L 154 133.867 154 157.434 L 154 181 157.500 181 L 161 181 161 143.500 L 161 106 163.500 106 L 166 106 166 121 C 166 135.603, 166.638 138.414, 168.965 134.066 C 170.266 131.634, 170.331 106.002, 169.045 102.617 C 167.305 98.041, 163.611 96.581, 153.088 96.314 C 147.815 96.180, 142.066 96.510, 140.313 97.048 M 130.243 174.164 C 125.166 176.626, 121 181.266, 121 184.458 C 121 187.738, 126.439 192.628, 132.938 195.190 C 140.652 198.230, 159.659 198.431, 168.402 195.565 C 174.942 193.422, 182 187.569, 182 184.290 C 182 180.180, 175.808 174.898, 168.250 172.561 C 166.054 171.882, 166 172.045, 166 179.433 L 166 187 151 187 L 136 187 136 179.500 C 136 175.375, 135.662 172.022, 135.250 172.050 C 134.838 172.077, 132.584 173.029, 130.243 174.164" stroke="none" fill="#4c545c" fill-rule="evenodd"/></svg>