<?xml version="1.0" standalone="no"?>
<!DOCTYPE svg PUBLIC "-//W3C//DTD SVG 20010904//EN"
 "http://www.w3.org/TR/2001/REC-SVG-20010904/DTD/svg10.dtd">
<svg version="1.0" xmlns="http://www.w3.org/2000/svg"
 width="264.000000pt" height="264.000000pt" viewBox="0 0 264.000000 264.000000"
 preserveAspectRatio="xMidYMid meet">
<metadata>
Created by potrace 1.14, written by Peter Selinger 2001-2017
</metadata>
<g transform="translate(0.000000,264.000000) scale(0.100000,-0.100000)"
fill="#000000" stroke="none">
<path d="M1258 2464 c-2 -1 -48 -7 -103 -12 -286 -30 -554 -175 -738 -400
-137 -167 -223 -371 -247 -587 -5 -49 -11 -342 -12 -651 -3 -464 -1 -564 11
-577 20 -24 242 -25 262 -1 10 13 13 138 15 622 2 571 3 611 22 682 71 270
256 481 507 578 243 95 462 80 713 -46 28 -14 52 -30 52 -34 0 -4 4 -8 10 -8
21 0 138 -107 188 -173 122 -158 174 -311 174 -517 1 -137 -18 -228 -72 -346
-89 -198 -269 -362 -479 -438 -111 -40 -218 -51 -458 -47 l-53 1 0 145 c0 109
3 145 13 146 6 1 74 2 149 4 76 2 161 8 190 14 204 44 375 232 408 448 21 136
-6 252 -87 376 -207 315 -679 314 -887 -1 -24 -37 -54 -96 -66 -132 -23 -64
-23 -70 -27 -657 -3 -415 -1 -599 7 -613 11 -20 19 -20 298 -19 406 1 540 24
740 127 287 148 491 400 575 712 14 52 41 233 41 275 -1 89 -29 258 -59 350
-64 197 -185 377 -337 505 -95 79 -96 80 -104 80 -4 0 -15 6 -23 14 -50 46
-264 132 -381 154 -72 14 -237 32 -242 26z"/>
</g>
</svg>
